<?xml version="1.0" encoding="UTF-8"?>
<svg id="Layer_1" data-name="Layer 1" xmlns="http://www.w3.org/2000/svg" version="1.1" viewBox="0 0 960 560">
  <defs>
    <style>
      .cls-1 {
        fill: #fff3df;
      }

      .cls-1, .cls-2 {
        stroke-width: 0px;
      }

      .cls-2 {
        fill: #941000;
      }
    </style>
  </defs>
  <rect class="cls-2" x="-11" y="-2" width="974" height="573"/>
  <g>
    <path class="cls-1" d="M156.21,97.87c.39,1.58.79,3.16,1.18,4.74-3.04,1.29-6.07,2.59-9.09,3.91-.39.17-.7.45-.93.83-.23.38-.39.84-.47,1.38-.08.54-.1,1.11-.05,1.72.05.61.17,1.24.34,1.88.4,1.44.93,2.53,1.62,3.27.68.74,1.39,1,2.13.76,1.56-.51,3.12-1.03,4.69-1.53.95-.31,1.85-.32,2.7-.03.85.3,1.64.84,2.36,1.64.72.8,1.37,1.82,1.93,3.07.57,1.25,1.04,2.65,1.43,4.2.41,1.68.66,3.27.75,4.75.09,1.48.02,2.79-.21,3.92-.23,1.13-.6,2.03-1.13,2.71-.53.68-1.2,1.05-2.02,1.14-3.91.42-7.82.85-11.72,1.28-.37-1.31-.75-2.62-1.12-3.93,3.14-.49,6.28-.98,9.42-1.46.42-.06.75-.28,1-.64.25-.36.42-.83.51-1.41.09-.58.1-1.25.03-2.01-.07-.76-.22-1.56-.43-2.41-.26-.99-.54-1.82-.84-2.49-.31-.66-.67-1.16-1.09-1.48-.42-.32-.91-.51-1.46-.55-.56-.04-1.23.05-2.02.26-1.01.27-2.02.55-3.03.82-.95.26-1.86.26-2.73.02-.87-.24-1.66-.68-2.38-1.31-.72-.63-1.36-1.44-1.92-2.43-.56-.99-1.03-2.13-1.41-3.44-.36-1.26-.57-2.49-.64-3.71-.07-1.23,0-2.36.23-3.41.22-1.05.59-1.99,1.1-2.81.51-.82,1.17-1.43,1.97-1.83,3.76-1.84,7.53-3.65,11.31-5.42Z"/>
    <path class="cls-1" d="M173.63,89.98c.79-.35,1.59-.36,2.4-.02.81.34,1.57.97,2.28,1.91.71.93,1.36,2.11,1.95,3.54.59,1.43,1.08,3.03,1.45,4.81,1.47,6.93,2.93,13.86,4.4,20.79.36,1.7.57,3.33.63,4.87.06,1.55-.03,2.9-.26,4.06-.23,1.16-.62,2.1-1.15,2.82-.53.72-1.22,1.11-2.06,1.2-2.61.26-5.21.53-7.82.79-.82.08-1.63-.13-2.44-.62-.8-.5-1.56-1.21-2.28-2.13-.72-.93-1.36-2.02-1.93-3.28-.57-1.26-1.03-2.62-1.38-4.09-1.44-5.97-2.88-11.94-4.31-17.92-.37-1.53-.58-3-.65-4.42-.06-1.42.03-2.73.27-3.92.24-1.19.62-2.22,1.15-3.09.53-.86,1.19-1.49,2.01-1.85,2.57-1.16,5.15-2.31,7.74-3.44ZM172.66,123.59c.18.78.42,1.53.7,2.24.29.71.6,1.34.95,1.89.35.55.72.97,1.11,1.27.4.3.79.42,1.19.36,1.05-.15,2.11-.3,3.17-.45.4-.06.72-.29.95-.69.24-.41.4-.92.48-1.55.08-.63.09-1.34.04-2.15-.05-.8-.18-1.64-.37-2.51-1.46-6.67-2.92-13.34-4.38-20.01-.2-.91-.44-1.74-.74-2.5-.29-.76-.61-1.39-.97-1.9-.35-.51-.72-.88-1.11-1.09-.39-.22-.77-.25-1.14-.1-1.05.42-2.09.84-3.14,1.26-.4.16-.7.48-.93.94-.22.47-.38,1.02-.47,1.68-.09.65-.11,1.37-.05,2.17.06.79.18,1.6.37,2.41,1.45,6.25,2.9,12.49,4.34,18.74Z"/>
    <path class="cls-1" d="M193.71,81.55c2.21-.89,4.04-.43,5.49,1.44,1.45,1.86,2.65,5.4,3.6,10.55.49,2.64.66,5.04.5,7.18-.16,2.14-.81,3.87-1.97,5.17.66.24,1.27.56,1.83.96.56.4,1.06.96,1.53,1.66.46.7.88,1.58,1.26,2.62.38,1.04.7,2.3.98,3.77,1.02,5.49,2.04,10.99,3.06,16.48-1.74.16-3.49.32-5.23.49-.79-4.11-1.57-8.22-2.36-12.33-1.24-6.47-2.72-9.51-4.43-9.1-1.63.37-3.27.75-4.9,1.13,1.4,7.01,2.81,14.01,4.21,21.02-1.82.18-3.65.35-5.47.53-3.23-15.59-6.47-31.18-9.7-46.77,3.86-1.63,7.73-3.23,11.61-4.79ZM191.85,105.56c1.67-.45,3.34-.9,5.01-1.35.8-.21,1.29-1.09,1.47-2.67.18-1.57.04-3.58-.43-6.02-.48-2.52-1.09-4.44-1.83-5.74-.74-1.3-1.51-1.8-2.31-1.51-1.67.61-3.34,1.23-5,1.85,1.03,5.14,2.06,10.29,3.09,15.43Z"/>
    <path class="cls-1" d="M215.38,73.23c2.23-.82,4.08-.17,5.53,2,1.45,2.16,2.65,6.15,3.59,11.91.48,2.95.64,5.62.48,7.99-.17,2.37-.83,4.26-2,5.65.66.29,1.27.68,1.83,1.15.56.47,1.07,1.11,1.53,1.91.46.8.88,1.79,1.26,2.96.38,1.17.7,2.59.97,4.23,1.01,6.14,2.01,12.29,3.02,18.43-1.75.15-3.49.3-5.24.45-.78-4.62-1.56-9.25-2.34-13.87-1.23-7.27-2.7-10.73-4.43-10.36-1.64.34-3.29.69-4.93,1.04,1.4,7.95,2.8,15.9,4.2,23.84-1.83.16-3.65.33-5.48.49-3.24-17.81-6.48-35.63-9.72-53.44,3.9-1.5,7.81-2.97,11.73-4.41ZM213.45,99.93c1.68-.42,3.36-.83,5.04-1.24.81-.2,1.3-1.16,1.49-2.9.19-1.74.05-3.99-.41-6.73-.48-2.83-1.09-5.01-1.83-6.51-.74-1.5-1.52-2.11-2.32-1.84-1.68.56-3.37,1.13-5.05,1.7,1.03,5.84,2.06,11.67,3.08,17.51Z"/>
    <path class="cls-1" d="M230.51,67.87c2.89,9.2,5.77,18.58,8.64,28.12.05-.01.1-.02.14-.03-.13-10.14-.26-20.44-.37-30.91,1.98-.65,3.96-1.29,5.95-1.93-.53,14.56-1.03,28.74-1.5,42.52,1.13,7.52,2.26,15.04,3.39,22.56-1.83.15-3.66.3-5.49.45-1.15-7.4-2.3-14.8-3.44-22.2-4.42-12.58-8.85-24.76-13.29-36.52,1.99-.7,3.99-1.39,5.98-2.07Z"/>
    <path class="cls-1" d="M260.02,58.47c2.2,16.61,4.41,33.23,6.61,49.84-2.18.29-4.36.59-6.54.89-2.24-16.24-4.47-32.49-6.71-48.73,2.21-.68,4.42-1.34,6.63-2ZM267.55,115.21c.5,3.76,1,7.52,1.5,11.28-2.17.16-4.33.32-6.5.48-.51-3.68-1.01-7.35-1.52-11.03,2.17-.25,4.35-.49,6.52-.74Z"/>
    <path class="cls-1" d="M304.82,46.71c.86-.2,1.69.17,2.5,1.09.81.93,1.56,2.3,2.25,4.11.69,1.81,1.3,4,1.83,6.54.53,2.55.94,5.33,1.23,8.35.37,3.73.49,6.97.37,9.73-.12,2.76-.53,5.03-1.24,6.82.51.64,1.01,1.62,1.51,2.95.5,1.33.96,2.81,1.39,4.44.43,1.64.81,3.39,1.14,5.27.33,1.88.58,3.69.75,5.42.3,3.09.45,5.96.45,8.62,0,2.66-.15,4.98-.45,6.97-.29,1.99-.72,3.56-1.29,4.72-.57,1.16-1.26,1.76-2.1,1.81-4.44.27-8.89.54-13.33.82-2.75-24.83-5.5-49.67-8.25-74.5,4.4-1.09,8.81-2.15,13.22-3.16ZM300.76,80.93c1.7-.28,3.41-.56,5.11-.83,1.69-.27,2.15-4.24,1.37-11.92-.39-3.81-.91-6.7-1.56-8.67-.65-1.97-1.39-2.86-2.22-2.69-1.72.37-3.44.74-5.16,1.11.82,7.67,1.64,15.33,2.46,23ZM304.38,114.77c1.84-.16,3.67-.31,5.51-.46.76-.06,1.26-1.26,1.49-3.62.23-2.36.15-5.41-.23-9.16-.17-1.72-.4-3.31-.67-4.79-.27-1.48-.58-2.76-.92-3.84-.34-1.08-.7-1.92-1.08-2.51-.38-.59-.76-.86-1.15-.8-1.86.26-3.71.52-5.56.78.87,8.13,1.74,16.27,2.61,24.4Z"/>
    <path class="cls-1" d="M333,40.8c.29,3.39.57,6.77.86,10.16-4.16.72-8.31,1.47-12.45,2.25.76,8.26,1.53,16.51,2.29,24.77,2.98-.42,5.97-.84,8.96-1.24.29,3.3.57,6.6.86,9.9-2.97.35-5.95.7-8.92,1.07.78,8.42,1.56,16.84,2.34,25.26,4.04-.3,8.08-.59,12.12-.87.28,3.32.56,6.64.85,9.96-5.89.3-11.78.62-17.66.96-2.51-26.17-5.02-52.34-7.54-78.51,6.09-1.31,12.19-2.55,18.3-3.71Z"/>
    <path class="cls-1" d="M355.72,36.84c.25,3.51.5,7.01.75,10.52-2.07.3-4.15.61-6.22.93,1.83,24.34,3.66,48.67,5.49,73.01-1.82.08-3.64.17-5.47.26-1.9-24.13-3.79-48.25-5.69-72.38-2.17.35-4.34.7-6.5,1.06-.28-3.41-.56-6.82-.84-10.23,6.14-1.13,12.3-2.19,18.47-3.16Z"/>
    <path class="cls-1" d="M378.51,33.58c.21,3.61.42,7.21.64,10.82-2.08.24-4.16.5-6.24.75,1.56,25.07,3.12,50.14,4.69,75.21-1.82.07-3.65.15-5.47.22-1.63-24.9-3.26-49.8-4.89-74.7-2.18.29-4.35.58-6.53.89-.24-3.53-.49-7.05-.73-10.58,6.17-.94,12.35-1.81,18.55-2.6Z"/>
    <path class="cls-1" d="M401.35,31c.17,3.68.34,7.36.51,11.05-4.2.38-8.4.78-12.59,1.22.48,9.09.97,18.18,1.45,27.27,3.01-.24,6.02-.47,9.03-.69.17,3.6.35,7.2.52,10.8-3,.19-5.99.39-8.98.6.49,9.27.99,18.54,1.48,27.81,4.05-.18,8.11-.35,12.17-.51.17,3.61.33,7.22.5,10.83-5.91.18-11.81.38-17.72.59-1.63-28.98-3.27-57.96-4.9-86.94,6.17-.75,12.35-1.43,18.53-2.04Z"/>
    <path class="cls-1" d="M417.71,29.58c2.35-.18,4.15,1.64,5.37,5.45,1.22,3.81,1.97,10.13,2.27,18.93.15,4.52,0,8.51-.43,11.98-.44,3.47-1.32,6.09-2.65,7.85.63.63,1.21,1.38,1.71,2.25.51.87.95,1.96,1.32,3.27.37,1.32.68,2.9.93,4.74.24,1.84.41,4.02.49,6.54.32,9.4.63,18.8.95,28.2-1.77.04-3.53.08-5.3.13-.26-7.23-.53-14.46-.79-21.7-.41-11.36-1.51-17.01-3.29-16.92-1.69.08-3.39.17-5.08.26.53,12.85,1.05,25.7,1.58,38.55-1.85.05-3.7.1-5.55.16-1.3-29.55-2.6-59.1-3.9-88.65,4.13-.38,8.25-.73,12.39-1.04ZM412.75,69.54c1.74-.1,3.48-.2,5.22-.3.83-.05,1.44-1.35,1.83-3.92.38-2.57.5-6,.34-10.28-.16-4.43-.53-7.92-1.11-10.47-.58-2.55-1.29-3.79-2.14-3.73-1.77.13-3.53.26-5.3.4.39,9.44.77,18.87,1.16,28.31Z"/>
    <path class="cls-1" d="M457.09,27.59c.43,26.51.86,53.01,1.28,79.52,4.3-.06,8.61-.12,12.91-.15.03,3.7.07,7.41.1,11.11-6.13.06-12.25.13-18.38.22-.58-30.18-1.16-60.36-1.74-90.54,1.94-.06,3.89-.12,5.84-.17Z"/>
    <path class="cls-1" d="M479.65,27.35c.09,22.03.18,44.05.27,66.08,0,1.79.07,3.5.2,5.1.13,1.61.3,3.03.52,4.26.22,1.23.49,2.22.81,2.97.31.75.68,1.12,1.09,1.12,1.03,0,2.07,0,3.1,0,.38,0,.73-.37,1.05-1.12.31-.75.58-1.74.79-2.97.22-1.23.39-2.65.51-4.26.12-1.6.18-3.31.18-5.1.01-22,.03-43.99.04-65.99,1.88.03,3.77.06,5.65.1-.08,21.97-.16,43.94-.24,65.9-.01,3.43-.16,6.64-.43,9.62-.27,2.98-.66,5.58-1.14,7.78-.49,2.2-1.07,3.94-1.75,5.21-.68,1.27-1.45,1.91-2.31,1.91-2.58,0-5.16.02-7.74.04-.86,0-1.63-.62-2.32-1.89-.69-1.27-1.28-3-1.77-5.21-.49-2.2-.88-4.8-1.15-7.79-.27-2.99-.42-6.21-.45-9.65-.15-22.04-.31-44.07-.46-66.11,1.86,0,3.72,0,5.58,0Z"/>
    <path class="cls-1" d="M515.99,28.34c-.06,3.73-.12,7.47-.18,11.2-3.23-.15-6.46-.27-9.69-.38-.42-.01-.8.35-1.13,1.08-.33.73-.62,1.71-.87,2.93-.25,1.22-.44,2.65-.58,4.28-.14,1.63-.22,3.34-.23,5.13-.12,13.65-.24,27.29-.36,40.94-.02,1.71.03,3.37.14,4.96.11,1.6.26,3.03.47,4.3.2,1.27.47,2.27.78,3.02.32.75.68,1.12,1.09,1.12,3.11.02,6.23.05,9.34.08-.06,3.66-.11,7.32-.17,10.98-3.89-.02-7.79-.03-11.68-.04-.84,0-1.58-.63-2.24-1.9-.66-1.27-1.22-3-1.69-5.2-.47-2.2-.82-4.79-1.07-7.77-.25-2.98-.36-6.18-.34-9.61.08-13.67.16-27.34.24-41.02.02-3.5.18-6.76.47-9.77.29-3.01.7-5.63,1.23-7.85.53-2.22,1.15-3.95,1.86-5.19.71-1.24,1.5-1.85,2.35-1.82,4.09.14,8.18.32,12.28.52Z"/>
    <path class="cls-1" d="M525.82,28.9c-.24,11.33-.48,22.65-.72,33.98.14,0,.27.01.41.02,2.79-11.21,5.63-22.36,8.51-33.44,2.02.15,4.04.3,6.05.47-3.38,12.64-6.7,25.39-9.96,38.24,2.52,16.77,4.96,33.45,7.33,50.01-2.05-.03-4.11-.05-6.16-.07-1.95-13.82-3.96-27.7-6.03-41.64-.15.03-.3.06-.44.09-.29,13.83-.58,27.65-.87,41.48-1.87-.02-3.75-.03-5.62-.04.53-29.82,1.06-59.63,1.6-89.45,1.97.11,3.94.23,5.91.35Z"/>
    <path class="cls-1" d="M571.86,33.17c2.04,21.83,3.97,43.45,5.8,64.82,1.11-21.22,2.23-42.43,3.34-63.65,1.52.2,3.04.41,4.56.63-1.55,28.03-3.09,56.05-4.64,84.08-2.09-.06-4.17-.11-6.26-.16-1.7-19.03-3.48-38.26-5.35-57.66-.89,19.16-1.78,38.31-2.67,57.47-1.44-.03-2.89-.06-4.33-.09,1.26-28.7,2.51-57.41,3.77-86.11,1.92.22,3.85.45,5.77.69Z"/>
    <path class="cls-1" d="M607.91,38.44c-.23,3.39-.47,6.77-.7,10.16-4.18-.64-8.36-1.25-12.54-1.83-.53,8.62-1.05,17.24-1.58,25.86,3,.3,6.01.62,9.01.95-.22,3.34-.44,6.68-.67,10.01-2.99-.28-5.97-.54-8.96-.8-.54,8.79-1.07,17.58-1.61,26.37,4.05.19,8.1.39,12.14.59-.23,3.32-.46,6.64-.68,9.96-5.89-.2-11.79-.39-17.69-.56,1.6-27.87,3.2-55.75,4.81-83.62,6.17.9,12.32,1.87,18.47,2.91Z"/>
    <path class="cls-1" d="M617.52,40.13c.7,9.75,1.39,19.44,2.05,29.05.06,0,.12.02.18.03,2.18-9.22,4.39-18.35,6.61-27.4,1.82.35,3.64.71,5.45,1.08-3.36,12.14-6.67,24.47-9.94,36.97,1.18,13.76,2.3,27.35,3.39,40.75-1.93-.08-3.85-.16-5.78-.24-.56-9.89-1.14-19.86-1.74-29.91-.06,0-.12-.01-.18-.02-2.19,9.78-4.36,19.65-6.51,29.59-1.88-.07-3.76-.14-5.64-.21,3.31-13.69,6.66-27.2,10.07-40.52-1.27-13.26-2.58-26.67-3.95-40.24,2,.35,3.99.71,5.99,1.07Z"/>
    <path class="cls-1" d="M653.26,47.51c-.3,3.09-.61,6.17-.91,9.26-2.06-.43-4.11-.85-6.17-1.27-2.06,21.92-4.13,43.84-6.19,65.76-1.82-.09-3.64-.17-5.46-.26,2-22.21,4.01-44.41,6.01-66.62-2.16-.42-4.32-.83-6.49-1.23.28-3.22.55-6.44.83-9.65,6.14,1.26,12.26,2.6,18.37,4.01Z"/>
    <path class="cls-1" d="M698.04,59.25c-.36,2.7-.72,5.4-1.07,8.1-2.03-.54-4.07-1.07-6.1-1.6-2.46,19.31-4.92,38.62-7.38,57.93-1.81-.12-3.63-.23-5.44-.34,2.42-19.67,4.84-39.34,7.26-59.01-2.14-.54-4.27-1.06-6.41-1.58.34-2.87.68-5.73,1.01-8.6,6.06,1.62,12.11,3.32,18.14,5.09Z"/>
    <path class="cls-1" d="M720.16,66.1c-.38,2.48-.75,4.96-1.13,7.43-2.03-.6-4.06-1.19-6.1-1.77-2.24,15.3-4.49,30.61-6.73,45.91,2,.2,4.01.41,6.01.62-.37,2.43-.74,4.86-1.11,7.29-5.86-.43-11.73-.84-17.6-1.24.35-2.61.71-5.22,1.06-7.82,2.03.2,4.06.39,6.09.59,2.21-15.65,4.43-31.3,6.64-46.95-2.06-.58-4.13-1.14-6.19-1.7.36-2.66.72-5.32,1.09-7.98,6.01,1.8,12,3.67,17.97,5.62Z"/>
    <path class="cls-1" d="M729.46,69.19c-1.08,14.93-2.18,29.61-3.29,44.04,3.59-14.07,7.19-27.89,10.8-41.44,1.87.66,3.73,1.32,5.59,1.99-3.13,17.84-6.26,35.68-9.39,53.52-1.34-.11-2.69-.22-4.03-.33,1.97-11.54,3.95-23.08,5.92-34.63-3,11.28-5.99,22.74-8.97,34.38-1.44-.11-2.88-.23-4.32-.34.98-11.95,1.95-24.06,2.91-36.33-1.93,12.04-3.85,24.07-5.78,36.11-1.38-.11-2.76-.21-4.15-.31,3.04-19.51,6.08-39.02,9.13-58.53,1.86.62,3.72,1.24,5.58,1.87Z"/>
    <path class="cls-1" d="M763.9,81.8c-.4,1.97-.8,3.94-1.2,5.91-3.99-1.42-7.99-2.81-12.01-4.16-.99,5.29-1.97,10.58-2.96,15.86,2.91.72,5.82,1.46,8.72,2.21-.39,1.97-.78,3.94-1.17,5.92-2.9-.64-5.81-1.27-8.72-1.89-1.01,5.39-2.01,10.79-3.02,16.18,3.99.48,7.97.98,11.95,1.48-.39,1.93-.78,3.86-1.17,5.8-5.82-.52-11.65-1.03-17.49-1.51,3.15-17.49,6.29-34.98,9.44-52.47,5.9,2.15,11.77,4.38,17.62,6.68Z"/>
    <path class="cls-1" d="M797.58,111.6c-.52,1.94-1.05,3.88-1.57,5.82-2.13-.55-4.27-1.09-6.41-1.62.53-2.06,1.05-4.12,1.58-6.19,2.14.66,4.27,1.32,6.4,1.99ZM793.44,126.93c-.52,1.94-1.05,3.88-1.57,5.82-2.14-.22-4.29-.44-6.43-.66.53-2.06,1.05-4.12,1.58-6.19,2.14.34,4.28.68,6.42,1.03Z"/>
    <path class="cls-1" d="M826.71,104.06c-.38,1.09-.75,2.18-1.13,3.28-1.28-.66-2.56-1.32-3.84-1.98-.39-.2-.8-.26-1.23-.18-.43.08-.84.25-1.24.51-.4.26-.76.59-1.08,1-.32.41-.55.85-.69,1.3-2.94,9.25-5.89,18.5-8.83,27.75-.24.77-.38,1.41-.4,1.94-.02.52.11.95.4,1.28.29.33.75.57,1.38.72.63.15,1.47.25,2.53.3.59.03,1.17.06,1.76.08-.38,1.09-.75,2.18-1.13,3.28-.94,0-1.88,0-2.82,0-1.32,0-2.47-.16-3.45-.51-.99-.34-1.77-.84-2.36-1.5-.59-.66-.95-1.48-1.1-2.44-.15-.97-.03-2.07.33-3.29,2.99-9.88,5.98-19.75,8.98-29.63.34-1.12.88-2.08,1.62-2.86.74-.78,1.59-1.35,2.55-1.7.96-.35,2-.45,3.13-.33,1.13.13,2.24.51,3.34,1.12,1.1.61,2.19,1.23,3.28,1.85Z"/>
  </g>
</svg>